<?xml version="1.0" encoding="UTF-8"?>
<svg width="40px" height="40px" viewBox="0 0 40 40" version="1.1" xmlns="http://www.w3.org/2000/svg" xmlns:xlink="http://www.w3.org/1999/xlink">
    <title>carb</title>
    <g id="b4-login" stroke="none" stroke-width="1" fill="none" fill-rule="evenodd">
        <g id="After-Login---Diet-Tool---Details" transform="translate(-415.000000, -399.000000)" fill-rule="nonzero">
            <g id="carb" transform="translate(415.000000, 399.000000)">
                <circle id="Oval-8-Copy" stroke="#F0F0F0" fill="#FFFFFF" cx="19.5672192" cy="19.5672192" r="19.0672192"></circle>
                <g id="grain" transform="translate(12.000000, 9.000000)">
                    <path d="M1.72531311,4.97449834 L1.23826812,7.28867042 C0.910332613,8.84616165 0.728955934,10.4309808 0.696364825,12.0222778 L1.23948273,20.7283584 C1.23948273,20.948399 1.3269322,21.159128 1.48239792,21.3145937 C1.63786364,21.4700594 1.84879498,21.5575089 2.06863325,21.5575089 L13.4048781,21.5575089 C13.6247163,21.5575089 13.8356477,21.4700594 13.9911134,21.3145937 C14.3147979,20.9909092 14.3147979,20.46601 13.9911134,20.1421231 L13.7479958,19.8992079 L14.1042714,18.3852389 C14.9619644,14.7409037 15.0067013,10.9522364 14.2352432,7.28867042 L13.7479958,4.97449834 L1.72531311,4.97449834 Z" id="Path" fill="#E5D3BD"></path>
                    <polygon id="Path" fill="#C69C6D" points="7.52936682 11.1931273 8.35851734 11.1931273 8.35851734 18.6554821 7.52936682 18.6554821"></polygon>
                    <path d="M5.45649049,10.3639768 C6.83037831,10.3639768 7.94394208,11.4777429 7.94394208,12.8514284 C6.57025663,12.8514284 5.45649049,11.7378646 5.45649049,10.3639768 Z" id="Path" fill="#A67C52"></path>
                    <path d="M7.94394208,8.29110045 C8.91540044,9.26255876 8.91540044,10.8374589 7.94394208,11.8089173 C6.97248372,10.8374589 6.97248372,9.26255876 7.94394208,8.29110045 Z" id="Path" fill="#C69C6D"></path>
                    <path d="M5.45649049,12.4368531 C6.83037831,12.4368531 7.94394208,13.5506192 7.94394208,14.9243047 C6.57025663,14.9243047 5.45649049,13.8107409 5.45649049,12.4368531 Z" id="Path" fill="#C69C6D"></path>
                    <path d="M5.45649049,14.5097294 C6.83037831,14.5097294 7.94394208,15.6234956 7.94394208,16.997181 C6.57025663,16.997181 5.45649049,15.8836172 5.45649049,14.5097294 Z" id="Path" fill="#A67C52"></path>
                    <path d="M7.94394208,16.997181 C7.94394208,15.6234956 9.05770822,14.5097294 10.4313937,14.5097294 C10.4313937,15.8836172 9.31782989,16.997181 7.94394208,16.997181 Z" id="Path" fill="#C69C6D"></path>
                    <path d="M7.94394208,14.9243047 C7.94394208,13.5506192 9.05770822,12.4368531 10.4313937,12.4368531 C10.4313937,13.8107409 9.31782989,14.9243047 7.94394208,14.9243047 Z" id="Path" fill="#A67C52"></path>
                    <path d="M7.94394208,12.8514284 C7.94394208,11.4777429 9.05770822,10.3639768 10.4313937,10.3639768 C10.4313937,11.7378646 9.31782989,12.8514284 7.94394208,12.8514284 Z" id="Path" fill="#C69C6D"></path>
                    <path d="M2.31620434,2.48704675 L13.4579146,2.48704675 C13.8844331,2.48724917 14.2682391,2.74696596 14.4267413,3.14291778 L14.8376729,4.17065146 C14.9239077,4.3864411 14.8202639,4.63138062 14.6054864,4.7196398 C10.3303814,6.47996524 5.54171323,6.52713126 1.23280257,4.85142131 L0.951425779,4.741907 C0.835028902,4.69676525 0.74454298,4.60243321 0.704057114,4.4844169 C0.663773717,4.36619817 0.677336495,4.23623857 0.741708995,4.12915346 L1.42308609,2.99372732 C1.61134539,2.67996189 1.95021211,2.487654 2.31620434,2.48704675 Z" id="Path" fill="#D6C2AD"></path>
                    <path d="M2.55446364,2.48704675 L4.7348299,0.977733682 C6.65163325,-0.348988162 9.20204037,-0.300405123 11.0670218,1.09777426 L12.9188453,2.48704675" id="Path" fill="#F2F2F2"></path>
                </g>
            </g>
        </g>
    </g>
</svg>