<?xml version="1.0" encoding="UTF-8"?>
<svg width="40px" height="40px" viewBox="0 0 40 40" version="1.1" xmlns="http://www.w3.org/2000/svg" xmlns:xlink="http://www.w3.org/1999/xlink">
    <title>fats</title>
    <g id="b4-login" stroke="none" stroke-width="1" fill="none" fill-rule="evenodd">
        <g id="After-Login---Diet-Tool---Details" transform="translate(-415.000000, -467.000000)" fill-rule="nonzero">
            <g id="fats" transform="translate(415.000000, 467.000000)">
                <circle id="Oval-8-Copy" stroke="#F0F0F0" fill="#FFFFFF" cx="19.5672192" cy="19.5672192" r="19.0672192"></circle>
                <g id="food-(2)" transform="translate(10.000000, 10.000000)">
                    <path d="M14.1066457,5.08735384 L10.6123598,4.77329064 L11.4725092,2.45321732 L9.05152057,0.0322286795 L7.61399616,0.272005356 C6.66464029,0.429741833 5.75142911,0.732644428 4.89899424,1.17088398 L4.40107485,1.42730366 L4.63341113,1.93724517 C4.70339004,2.08981253 4.73839908,2.25330552 4.73839908,2.42369068 C4.73839908,3.07131875 4.21122717,3.59849066 3.5635991,3.59849066 C3.30318511,3.59849066 3.05765191,3.51531482 2.85229687,3.35871399 L2.40716516,3.01798283 L2.04634493,3.44705894 C1.04588526,4.63505585 0.316647755,6.06972158 0,7.7102906 L9.43755985,10.4291694 L20.0499197,10.9914678 L14.1066457,5.08735384 Z" id="Path" fill="#FEDB41"></path>
                    <path d="M19.6581239,14.2382233 L20.0499197,14.0999885 L20.0499197,10.9914678 L0,7.7102906 L0,16.4214716 L3.5136701,17.0731332 L3.56759342,16.4237821 C3.61693502,15.8197391 4.13145825,15.3464905 4.73835992,15.3464905 C5.38598799,15.3464905 5.9131599,15.8736624 5.9131599,16.5212905 C5.9131599,16.6348545 5.89710431,16.7472828 5.86499311,16.8539938 L5.67111195,17.506791 L11.9056971,18.3941957 L14.1367598,16.5212905 L16.0947206,18.9904067 L20.0499197,19.547771 L20.0499197,16.5929924 L19.6581239,16.4547576 C19.3856486,16.3583849 19.1584815,16.1650911 19.019111,15.9109427 C18.9233257,15.7365632 18.8751197,15.5466764 18.8751197,15.3464905 C18.8751197,14.8497459 19.1900444,14.4040268 19.6581239,14.2382233 Z" id="Path" fill="#FCBF29"></path>
                    <g id="Group" transform="translate(2.388760, 5.913160)" fill="#FE9923">
                        <path d="M7.63619988,9.43333057 C6.66448365,9.43333057 5.87399991,8.64284682 5.87399991,7.6711306 C5.87399991,6.69941437 6.66448365,5.90893063 7.63619988,5.90893063 C8.6079161,5.90893063 9.39839985,6.69941437 9.39839985,7.6711306 C9.39839985,8.64284682 8.6079161,9.43333057 7.63619988,9.43333057 Z" id="Path"></path>
                        <path d="M11.7479998,9.43333057 C10.7980565,9.43333057 9.94738388,9.99950584 9.58025889,10.8760241 C9.36378241,11.392662 9.35763429,11.9448571 9.51693717,12.4810358 L13.7059606,13.0772468 C13.9523162,12.7056968 14.0975998,12.2613482 14.0975998,11.7829305 C14.0975998,10.487087 13.0438434,9.43333057 11.7479998,9.43333057 Z" id="Path"></path>
                        <path d="M2.34959996,4.73413064 C1.05375642,4.73413064 0,3.68037422 0,2.38453068 C0,1.08868714 1.05375642,0.0349307194 2.34959996,0.0349307194 C3.6454435,0.0349307194 4.69919992,1.08868714 4.69919992,2.38453068 C4.69919992,3.68037422 3.6454435,4.73413064 2.34959996,4.73413064 Z" id="Path"></path>
                    </g>
                    <path d="M9.43755985,4.77329064 C9.43755985,6.06913418 10.4913163,7.12289061 11.7871598,7.12289061 C12.6866258,7.12289061 13.4937134,6.62211253 13.893537,5.81557319 C14.0088241,5.58280615 14.0735164,5.33723379 14.1066457,5.08735384 L11.4725092,2.45321732 C11.2228251,2.48650332 10.9775268,2.55146976 10.7448381,2.66691344 C9.93833792,3.06673703 9.43755985,3.87382462 9.43755985,4.77329064 Z" id="Path" fill="#FEA832"></path>
                </g>
            </g>
        </g>
    </g>
</svg>