<?xml version="1.0" encoding="UTF-8"?>
<svg width="39px" height="39px" viewBox="0 0 39 39" version="1.1" xmlns="http://www.w3.org/2000/svg" xmlns:xlink="http://www.w3.org/1999/xlink">
    <title>Protein-Copy</title>
    <g id="b4-login" stroke="none" stroke-width="1" fill="none" fill-rule="evenodd">
        <g id="After-Login---Diet-Tool---Details" transform="translate(-415.000000, -331.000000)" fill-rule="nonzero">
            <g id="Protein-Copy" transform="translate(415.000000, 331.000000)">
                <g id="Group-11">
                    <circle id="Oval-8-Copy" stroke="#F0F0F0" fill="#FFFFFF" cx="19.4567821" cy="19.4567821" r="18.9567821"></circle>
                    <g id="protein" transform="translate(11.975584, 8.987685)">
                        <path d="M11.7084258,0 C12.4324062,0 13.0192734,0.586910156 13.0192734,1.31084766 L13.0192734,4.06712109 L2.85093359,4.06712109 L2.85093359,1.31084766 C2.85093359,0.586910156 3.43784375,0 4.16182422,0 L11.7084258,0 Z" id="Path" fill="#FF7373"></path>
                        <path d="M10.8910312,4.06712109 L10.8910312,2.03336719 C10.8910312,1.84980469 11.039832,1.70100391 11.2233945,1.70100391 C11.406957,1.70100391 11.5557578,1.84980469 11.5557578,2.03336719 L11.5557578,4.06712109 L10.8910312,4.06712109 Z" id="Path" fill="#E05E5E"></path>
                        <path d="M8.85259375,4.06712109 L8.85259375,2.03336719 C8.85259375,1.84980469 9.00139453,1.70100391 9.18495703,1.70100391 C9.36851953,1.70100391 9.51732031,1.84980469 9.51732031,2.03336719 L9.51732031,4.06712109 L8.85259375,4.06712109 Z" id="Path" fill="#E05E5E"></path>
                        <path d="M1.88998047,21.9759805 C0.846183594,21.9759805 0,21.1298398 0,20.086043 L0,5.71497266 C0,4.67117578 0.846183594,3.82499219 1.88998047,3.82499219 L13.9802695,3.82499219 C15.0240664,3.82499219 15.87025,4.67117578 15.87025,5.71497266 L15.87025,21.9759805 L1.88998047,21.9759805 Z" id="Path" fill="#E3E6ED"></path>
                        <rect id="Rectangle" fill="#FF7373" x="0" y="9.06034766" width="15.870207" height="6.51414844"></rect>
                        <rect id="Rectangle" fill="#E05E5E" x="14.4078516" y="9.06034766" width="1.46235547" height="6.51414844"></rect>
                        <g id="Group" transform="translate(2.750000, 7.089844)">
                            <g>
                                <circle id="Oval" fill="#5E6478" cx="5.185125" cy="5.19028125" r="5.16256641"></circle>
                                <path d="M5.185125,0.027671875 C5.02068359,0.027671875 4.85817578,0.0357070313 4.6976875,0.0507460938 C7.32024219,0.296398438 9.37281641,2.50344531 9.37281641,5.19023828 C9.37281641,7.87703125 7.32024219,10.0840781 4.6976875,10.3297305 C4.85817578,10.3447695 5.02072656,10.3528047 5.185125,10.3528047 C8.03631641,10.3528047 10.3476914,8.04142969 10.3476914,5.19023828 C10.3476914,2.33904688 8.03631641,0.027671875 5.185125,0.027671875 Z" id="Path" fill="#4C5061"></path>
                                <path d="M7.17947656,4.32063672 L5.46691406,4.30976563 C5.3810625,4.30920703 5.31480469,4.23414063 5.32494531,4.14889062 L5.55585937,2.20743359 C5.57369141,2.05751562 5.37801172,1.9848125 5.29366406,2.11002344 L3.06869922,5.41152734 C3.00420312,5.50726172 3.07299609,5.63616797 3.18845312,5.63582422 L4.75917578,5.63135547 C4.84928125,5.63109766 4.91747266,5.71278125 4.90110156,5.80142578 L4.47420703,8.1104375 C4.4460625,8.26263281 4.64513672,8.34586328 4.73369531,8.21893359 L7.29660937,4.54686719 C7.36291016,4.45186328 7.29536328,4.32136719 7.17947656,4.32063672 Z" id="Path" fill="#F9C032"></path>
                            </g>
                        </g>
                    </g>
                </g>
            </g>
        </g>
    </g>
</svg>