<svg xmlns="http://www.w3.org/2000/svg" xmlns:xlink="http://www.w3.org/1999/xlink" version="1.1" x="0px" y="0px" viewBox="0 0 100 125" style="enable-background:new 0 0 100 100;" fill="#843a91" stroke="#843a91" xml:space="preserve"><g><path d="M47.9619141,46.3652344h2.5356445c0.5522461,0,1-0.4477539,1-1s-0.4477539-1-1-1h-2.5356445c-0.5522461,0-1,0.4477539-1,1   S47.409668,46.3652344,47.9619141,46.3652344z"/><path d="M60.1142578,49.1723633h2.5002441c0.0085449,0.0002441,0.015625,0.0048828,0.0241699,0.0048828h0.0092773   c0.277771,0,0.5273438-0.1138306,0.7074585-0.2966919c0.1817627-0.1810913,0.2944946-0.4313965,0.2944946-0.7081909   c0-0.5522461-0.4477539-1-1-1h-2.5356445c-0.5522461,0-1,0.4477539-1,1S59.5620117,49.1723633,60.1142578,49.1723633z"/><path d="M66.362793,57.3222656h2.5356445c0.5522461,0,1-0.4477539,1-1s-0.4477539-1-1-1H66.362793c-0.5522461,0-1,0.4477539-1,1   S65.8105469,57.3222656,66.362793,57.3222656z"/><path d="M52.6162109,55.4208984h2.5356445c0.5522461,0,1-0.4477539,1-1s-0.4477539-1-1-1h-2.5356445c-0.5522461,0-1,0.4477539-1,1   S52.0639648,55.4208984,52.6162109,55.4208984z"/><path d="M39.6669922,57.956543h2.5351562c0.5522461,0,1-0.4477539,1-1s-0.4477539-1-1-1h-2.5351562c-0.5522461,0-1,0.4477539-1,1   S39.1147461,57.956543,39.6669922,57.956543z"/><path d="M30.4741211,72.3432617c-0.1259766-0.5385742-0.6679688-0.8730469-1.2011719-0.7460938   c-0.5380859,0.1254883-0.8720703,0.6635742-0.7460938,1.2011719l3.1396484,13.4233398   c0.1079102,0.4614258,0.5185547,0.7724609,0.9726562,0.7724609c0.0756836,0,0.1523438-0.0083008,0.2285156-0.0263672   c0.5380859-0.1254883,0.8720703-0.6635742,0.7460938-1.2011719L30.4741211,72.3432617z"/><path d="M23.2861328,43.0986328c-0.2163086,0.046875-0.9438477,0.1425781-1.4389648-0.5483398l-3.0214844-5.8110352   c-0.1904297-0.3657227-0.5917969-0.578125-0.9936523-0.5327148c-0.409668,0.0439453-0.75,0.3339844-0.8583984,0.7314453   C10.2695923,61.550293,17.053833,70.682312,24.1668091,73.979126l3.7868042,15.7362061   c0.6533203,3.0820312,3.4140625,5.3188477,6.5644531,5.3188477H74.046875c3.1503906,0,5.9111328-2.2368164,6.5585938-5.2924805   l5.0126953-20.8325195c0.421875-1.9892578-0.0703125-4.0366211-1.3505859-5.6162109   c-1.2009277-1.4821777-2.9495239-2.3609619-4.8399048-2.4654541C78.9088135,47.4031982,67.8319092,36.640625,54.2827148,36.640625   c-0.1207886,0-0.2397461,0.0074463-0.3601074,0.0091553c0.3712158-0.7133179,0.6779175-1.1873169,0.6828613-1.1947021   c0.0429688-0.0664062,0.0786133-0.1381836,0.1049805-0.2124023c4.0878906-11.5229492-9.7294922-20.1655273-10.3198242-20.527832   c-0.3476562-0.2143555-0.7905273-0.1958008-1.1186523,0.0488281c-0.328125,0.2431641-0.4750977,0.6616211-0.371582,1.0566406   c2.8852539,11.0239258,1.3652344,14.8583984,0.2021484,16.1630859c-0.3520508,0.3945312-0.7294922,0.6289062-1.0722656,0.7666016   c3.659668-17.1914062-14.5356445-27.5522461-14.7250977-27.6577148c-0.3588867-0.2016602-0.8061523-0.159668-1.1245117,0.1035156   c-0.3178711,0.2636719-0.440918,0.6948242-0.3105469,1.0864258c5.4526367,16.3500977-4.4750977,25.9248047-4.9003906,26.3242188   c-0.2021484,0.1899414-0.3168945,0.4555664-0.315918,0.7329102s0.1166992,0.5424805,0.3203125,0.730957   c3.8647461,3.578125,3.5083008,7.2041016,3.3984375,7.8891602C24.2280273,42.8286133,23.5043945,43.0512695,23.2861328,43.0986328z    M82.7138672,64.5517578c0.8984375,1.109375,1.2441406,2.5458984,0.9541016,3.9160156L78.6552734,89.300293   c-0.4589844,2.1635742-2.3969727,3.7338867-4.6083984,3.7338867H34.5180664c-2.2114258,0-4.1494141-1.5703125-4.6142578-3.7602539   l-5.0004883-20.7797852c-0.2958984-1.3964844,0.0493164-2.8330078,0.9477539-3.9418945   c0.8989258-1.109375,2.2329102-1.7456055,3.6606445-1.7456055h0.5812378   c0.0068359,0.0001221,0.0125122,0.0039062,0.0193481,0.0039062s0.0125122-0.0037842,0.0193481-0.0039062h48.3016357   c0.0068359,0.0001221,0.0125122,0.0039062,0.0193481,0.0039062s0.0125122-0.0037842,0.0193481-0.0039062h0.5812378   C80.480957,62.8066406,81.8149414,63.4428711,82.7138672,64.5517578z M77.4271851,60.8066406H31.1377563   C31.6657715,48.4950562,41.8430176,38.640625,54.2827148,38.640625   C66.7219238,38.640625,76.8991699,48.4950562,77.4271851,60.8066406z M23.046875,33.3081055   c2.246582-2.5698242,8.84375-11.5351562,5.4907227-25.0146484c4.6655273,3.3696289,14.8168945,12.4208984,11.2133789,25.3544922   c-0.0756836,0.2729492-0.0327148,0.5649414,0.1186523,0.8037109c0.1518555,0.2392578,0.3974609,0.402832,0.6762695,0.4506836   c0.0913086,0.015625,2.2636719,0.3608398,3.9995117-1.5327148c2.3310547-2.5429688,2.6420898-7.7216797,0.9316406-15.4121094   C49,20.7548828,55.4057617,27.0717773,52.8623047,34.46875c-0.1877441,0.2996826-0.722168,1.1851196-1.2215576,2.3112793   c-12.3207397,1.2911987-22.0187378,11.5072632-22.503479,24.0474854c-1.8905029,0.1044922-3.6394043,0.9832764-4.8399048,2.4654541   c-1.2802734,1.5800781-1.7724609,3.6269531-1.3442383,5.6425781l0.5871582,2.4400024   c-5.5581665-3.434021-10.1092529-11.7422485-5.2873535-31.4019165l1.8491211,3.5556641   c0.0175781,0.0332031,0.0366211,0.065918,0.0576172,0.097168c0.7841797,1.1645508,2.1782227,1.7246094,3.5512695,1.4267578   c1.3710938-0.2983398,2.4052734-1.3842773,2.6352539-2.7719727C26.7202148,39.9482422,26.0180664,36.4472656,23.046875,33.3081055z   "/></g></svg>