<svg xmlns="http://www.w3.org/2000/svg" xmlns:xlink="http://www.w3.org/1999/xlink" version="1.1" x="0px" y="0px" viewBox="0 0 512 640" style="enable-background:new 0 0 512 512;" fill="#843a91" stroke="#843a91" xml:space="preserve"><g><g><g><path d="M316.8,192.8c3,1.5,4.1,5.1,2.6,8.1s-5.1,4.1-8.1,2.6c-3-1.5-4.1-5.1-2.6-8.1C310.2,192.4,313.9,191.2,316.8,192.8z"/><path d="M311.5,148.9c3,1.5,4.1,5.1,2.6,8.1c-1.5,2.9-5.1,4.1-8.1,2.6s-4.1-5.1-2.6-8.1C304.9,148.6,308.5,147.4,311.5,148.9     L311.5,148.9z"/><circle cx="243.7" cy="256.2" r="6"/><circle cx="199.8" cy="187.4" r="6"/><circle cx="163.1" cy="253.7" r="6"/><circle cx="160" cy="151.9" r="6"/><circle cx="144.7" cy="204" r="6"/><circle cx="138.7" cy="297.6" r="6"/></g><g><path d="M316.8,192.8c3,1.5,4.1,5.1,2.6,8.1s-5.1,4.1-8.1,2.6c-3-1.5-4.1-5.1-2.6-8.1C310.2,192.4,313.9,191.2,316.8,192.8z"/><path d="M311.5,148.9c3,1.5,4.1,5.1,2.6,8.1c-1.5,2.9-5.1,4.1-8.1,2.6s-4.1-5.1-2.6-8.1C304.9,148.6,308.5,147.4,311.5,148.9     L311.5,148.9z"/><circle cx="243.7" cy="256.2" r="6"/><circle cx="199.8" cy="187.4" r="6"/><circle cx="163.1" cy="253.7" r="6"/><circle cx="160" cy="151.9" r="6"/><circle cx="144.7" cy="204" r="6"/><circle cx="138.7" cy="297.6" r="6"/></g></g><path d="M72.7,141c-11.9,13.2-11.8,31.6-11.4,56.2c-0.2,30.9-0.4,82.7-0.2,120c0.1,20.3,15.7,36.8,34.9,36.9   c1.4,0.1,11.2,0.7,24.4,1.5c2.6,0.5,5.3,0.3,7.9,0.5c-1.4,14.9,7.4,29,21.2,34.7l-53.6,17.3c-3.2,1-4.9,4.4-3.9,7.5   c1,3.2,4.5,4.9,7.6,3.9l53.6-17.3c-9.7,15.6-5.4,36.1,10,46.9c20.3,12.6,40.4,13.7,64.3,14.5c4.9,0,9.7-0.2,14.4-0.6   c11.1-0.5,17.4-14.6,10.5-23.2c-3.7-4.9-7.3-10.5-10.2-15.6c20.5,8.6,42.1,9.1,64.3,7.4c11.2-0.7,17.1-15,10-23.6   c-2.5-3.2-5-6.6-7.2-10c18,5.7,36.2,5.3,54.8,3.1c11.2-1.2,16.8-15.8,9.1-24c-4.3-4.9-8.4-10.4-10.7-14.3   c21.3,2.3,41.9-8.3,56.8-25.1c8.5-9.9,17.4-22.1,28.4-28.7c3.1-1.9,4.5-5.6,3.4-9.1c-1.1-3.4-4.5-5.6-8-5.3   c-24.6,1.1-48.4-14.1-73.7-7.3c0-28.2-0.1-58-0.2-78.3c0.4-22.6,0.4-39.5-10.5-51.8c15.9-15.8,14.5-41-2.9-59.8   c-17.6-49.2-89-47.2-146.2-48.8C147.2,49.4,59,49.6,60.8,117.1C62.3,128.1,68.2,136.2,72.7,141L72.7,141z M141.2,352   c2.2-7.9,8.1-15.3,13-20.9c9.6-11,23.8-22.7,38-31.3c1.8-0.9,3.7-0.1,3.9,2.2c-0.2,12,1,25.7,3.1,33.3c1.4,4.8,3,12.5,2.7,18   C200.6,390.2,132.6,393.8,141.2,352L141.2,352z M268.3,318.7c2.5,10.3,3.3,21.2-3,28.8c-15.4,20.7-57.7,13.7-48-16.6   c9.4-19.3,26.7-31.4,45.4-43.2c0.8-0.5,1.9-0.4,2.6,0c0.4,0.2,1.3,1,1.3,2.4C266.1,300.7,266.8,312.1,268.3,318.7L268.3,318.7z    M330.8,304.9c1.2,7,1.9,15.9-2.4,22.3c-7.7,12.6-31.6,16.7-41.1,4.8c-4-4.9-4.3-11.8-1.6-17.6c9.3-16.2,24.4-25.6,41.1-35.3   c0.8-0.5,2.2-0.3,2.7,0.1c0.5,0.3,1.2,1,1.1,2.3C329.8,290.4,329.8,299.4,330.8,304.9L330.8,304.9z M287.9,364.4   c-4.4-3.6-9.5-6-15.1-7.1c0.1-0.1,0.1-0.1,0.2-0.2c6.4-0.4,12.5-0.7,18.1-1C289.6,358.7,288.5,361.5,287.9,364.4L287.9,364.4z    M221.9,389.1c-5.3-4.9-12.2-8-19.5-9.2c5.3-5.3,8.9-11.6,10.5-18.9c4.8,4.8,11.3,8.1,18.4,9.5C226.4,376,223.1,382.4,221.9,389.1   L221.9,389.1z M242.7,446.9c1.2,1.8,0.2,3.7-1.8,4.1c-16.5,1.3-34.9,0.1-49.1-3.2c-6.8-1.6-15.4-4-21.6-8.5   c-17.5-12.4-10.5-35.7,7.8-44.2c9.3-4.6,21.6-5.4,30.7-0.7c9,4.7,13.6,14.1,17.1,23.7C228.6,425.4,235.5,437.2,242.7,446.9   L242.7,446.9L242.7,446.9z M307.3,418c-0.2,0.5-0.8,1.4-2.1,1.5c-22,1.4-43.3,1.6-62.1-8.6c-26.8-20.3,7.9-51.9,32.6-40.3   c7.1,3,12.6,11.9,16,20.5c2.6,6.2,8.7,15.9,15.2,24.2C307.8,416.5,307.5,417.6,307.3,418L307.3,418z M364.5,387.4   c-0.2,0.5-0.7,1.5-2.1,1.7c-17.2,2-51.5,4.2-61-11.5c-8.4-15.1,10.7-30.9,25.6-30c11.4-0.7,19.4,8.9,23.5,18.2   c2.5,5,7.7,12.3,13.6,19C364.9,385.9,364.7,386.9,364.5,387.4z M400.3,299.4c10.1,2.5,20.2,5.5,31,6.8   c-8.1,7.3-14.5,15.7-21.2,23.6c-16.1,20-54.6,33.5-66.9,4.8C336.1,303.9,376.2,292.7,400.3,299.4z M357.5,133.4   c-2.9,16.9-13.6,16.8-13.8,23.7c0.5,7.4,12.6,6.4,13.2,31.9c0.1,29.6,0.3,64.7,0.3,102c-5.4,2.3-10.7,5.4-14.9,9.5   c-0.4-4.6-0.3-11.4,0.3-17.9c0.5-5.3-1.9-10.5-6.4-13.4c-4.5-3-10.2-3.3-15-0.8c-17.4,9.6-31.2,19.3-42.7,34.4   c-0.2-3.9-0.2-8.2,0-12.2c0.8-11.1-12.3-19.3-21.9-13.3c-19.9,12.2-35.9,24.4-47.9,43.5c-0.6-5.8-0.9-12.5-0.8-18.6   c0.6-11.1-12.8-18.8-22.1-12.7c-22.9,14.9-42.4,30.1-54.5,54c-14.5,2.6-26.8-6.7-27.1-22.4c-0.2-34.6,0-82.8,0.1-111.6   c-0.4-23.7-0.2-39,10.6-47.5c1.6-1.1,2.6-2.9,2.6-4.9s-0.9-3.8-2.5-5c-12.7-9.6-16.9-28.1-0.9-46.1c14-21.1,95.4-24.3,116.5-23.3   C262.1,83.7,360.3,79.2,357.5,133.4L357.5,133.4z M83.9,85.7C99,62.9,186.6,59.5,209.3,60.5c22.5-1,103.9,2.2,122.5,22.1   c-51-16.7-193-21.8-226.8,15.7c-16.8,18.8-17.4,43.6-2,58.8c-10.9,12.3-10.8,29.6-10.5,52.3c-0.1,28.8-0.4,77-0.2,111.7   c0.1,7.9,2.5,15.1,6.8,21c-14.1,0.8-25.8-9.9-26-25.1c-0.2-37.2,0-88.9,0.2-119.8c-0.4-25.8-0.2-42.2,11.6-51.4   c3.4-2.2,3.5-7.6,0.1-9.9C71.1,125.5,66.6,105.2,83.9,85.7L83.9,85.7z"/></g></svg>