<svg xmlns="http://www.w3.org/2000/svg" xmlns:xlink="http://www.w3.org/1999/xlink" version="1.2" baseProfile="tiny" x="0px" y="0px" viewBox="0 0 128 160" xml:space="preserve"><g><path fill="none" stroke="#843a91" stroke-width="4" stroke-linecap="round" stroke-linejoin="round" stroke-miterlimit="10" d="   M84,17c0,0,0,5-5,5l-30,0c0,0-5,0-5-5V7c0,0,0-5,5-5l30,0c0,0,5,0,5,5V17z"/><path fill="none" stroke="#843a91" stroke-width="4" stroke-linecap="round" stroke-linejoin="round" stroke-miterlimit="10" d="   M78,23v2c0,0,0,5,5,5h1c0,0,15,0,15,15v76c0,0,0,5-5,5H34c-5,0-5-5-5-5V45c0-15,15-15,15-15h1c5,0,5-5,5-5v-2"/><line fill="none" stroke="#000000" stroke-width="4" stroke-linejoin="round" stroke-miterlimit="10" x1="30" y1="54" x2="98" y2="54"/><line fill="none" stroke="#843a91" stroke-width="4" stroke-linejoin="round" stroke-miterlimit="10" x1="30" y1="114" x2="98" y2="114"/><g><path fill="none" stroke="#843a91" stroke-width="4" stroke-linecap="round" stroke-linejoin="round" stroke-miterlimit="10" d="    M67,89c0,0-4-0.4-6.8-6.2c-0.4-0.9-0.9-2.4-1.4-3.8l-1.3-5c-0.7,1.2-2,2-3.5,2h-1c-2.2,0-4-1.8-4-4v0c0-2.2,1.8-4,4-4h1H63    c0,0.7,0.3,2.5,0.9,3.7c0.4,0.8,0.8,1.1,1.1,1.3c2.6,2,5.8,3.3,8,5c3.4,2.6,5.4,6.1,6,8c0.7,2.1,1.5,4.1,1,6c-0.9,3-4.9,4.8-7,6    c-2.1,1.2-6.7,2.8-10,3c-4.6,0.3-9-4-14,1"/><path fill="none" stroke="#843a91" stroke-width="4" stroke-linecap="round" stroke-linejoin="round" stroke-miterlimit="10" d="    M49,88.1c2.3,0,4.4,1,6.1,2.7l-0.1,0c3.1-2.1,6-3.3,8.3-3.3"/></g></g></svg>