<svg xmlns="http://www.w3.org/2000/svg" version="1.1" viewBox="0 0 20.458 26.0725" width="70px" height="70px" x="0px" y="0px"><g transform="matrix(1.5476 0 0 1.5476 -5.1416 -7.4887)" fill="#843a91" stroke-width=".64615"><path d="m10.841 6.3771c-0.04485 3e-7 -0.07613 0.031281-0.07613 0.07613v0.57799c0 0.044849 0.03128 0.076464 0.07613 0.076464h2.0058c0.04485 0 0.07413-0.031615 0.07413-0.076464v-0.57799c0-0.044849-0.02928-0.07613-0.07413-0.07613zm0.32823 1.0722c-0.21295 0.46633-0.57129 1.1915-0.90255 1.9159-0.17444 0.38151-0.33602 0.75537-0.45511 1.0685-0.11909 0.31313-0.19254 0.5762-0.19734 0.68751-0.010635 0.24538 0.1393 0.41067 0.33791 0.61138 0.16504 0.16679 0.37017 0.35259 0.43474 0.61505h2.9671c0.06482-0.26172 0.27-0.4468 0.43441-0.61305 0.19794-0.20016 0.34618-0.36665 0.33758-0.61539-0.0039-0.11189-0.07487-0.37921-0.19333-0.69719-0.11846-0.31798-0.28075-0.69742-0.45511-1.0822-0.33198-0.73259-0.6934-1.4556-0.90622-1.8906zm-0.78902 5.2403c-0.03222 0.09989-0.08989 0.18276-0.1546 0.24008-0.09903 0.08772-0.20046 0.13498-0.28716 0.19534-0.1734 0.12071-0.32422 0.25315-0.32422 0.79703-6.2e-6 1.1653 0 5.6173 0 5.6173 0 0.20605 0.15664 0.42672 0.3673 0.59368 0.21065 0.16696 0.48654 0.26345 0.55261 0.26345 0.0879 0 0.30936-0.07346 0.55094-0.15994 0.24159-0.08647 0.51261-0.18164 0.78501-0.18164 0.2724 0 0.54344 0.09515 0.78534 0.18164 0.2419 0.08649 0.46629 0.15994 0.55261 0.15994 0.06433 0 0.33996-0.09642 0.55094-0.26345 0.21099-0.16703 0.36696-0.38785 0.36696-0.59368 0 0 2.09e-4 -4.452 0-5.6173-9.6e-5 -0.5439-0.14883-0.67632-0.32222-0.79703-0.08669-0.06036-0.18981-0.1076-0.28883-0.19534-0.0647-0.05732-0.12238-0.14019-0.1546-0.24008zm3.0312 2.3163a0.17096 0.17096 0 0 1 0.17163 0.16996v1.3673a0.17096 0.17096 0 0 1-0.17163 0.17163 0.17096 0.17096 0 0 1-0.16996-0.17163v-1.3673a0.17096 0.17096 0 0 1 0.16996-0.16996zm0 2.0508a0.17096 0.17096 0 0 1 0.17163 0.17196v0.34158a0.17096 0.17096 0 0 1-0.17163 0.16996 0.17096 0.17096 0 0 1-0.16996-0.16996v-0.34158a0.17096 0.17096 0 0 1 0.16996-0.17196zm0 1.0254a0.17096 0.17096 0 0 1 0.17163 0.17196v0.18932a0.17096 0.17096 0 0 1-0.17163 0.17196 0.17096 0.17096 0 0 1-0.16996-0.17196v-0.18932a0.17096 0.17096 0 0 1 0.16996-0.17196z" color="#843a91" stroke-linecap="round" stroke-linejoin="round" stroke-width=".64616" style="paint-order:fill markers stroke;"/></g></svg>