<svg viewBox="0 0 72 72" xmlns="http://www.w3.org/2000/svg" width="100px" height="100px"><path d="m44.2748 23.3423h4.948a4.0713 4.0713 0 0 1 4.0713 4.0714v24.6049a4.0713 4.0713 0 0 1 -4.0713 4.0714h-26.9682a4.0714 4.0714 0 0 1 -4.0714-4.0714v-24.6049a4.0714 4.0714 0 0 1 4.0714-4.0714h6.3754" fill="none" stroke="#843a91" stroke-linecap="round" stroke-linejoin="round" stroke-width="2"/><circle cx="36.062" cy="23.2787" fill="none" r="7.2787" stroke="#843a91" stroke-linecap="round" stroke-linejoin="round" stroke-width="2"/><path d="m38.39 18.9441a.6217.6217 0 0 0 -.8339.2782l-1.89 3.7816a1.1456 1.1456 0 0 0 -1.0146.8128 1.182 1.182 0 0 0 2.2691.659 1.1232 1.1232 0 0 0 -.14-.9217l1.8872-3.776a.6217.6217 0 0 0 -.2778-.8339z"/><path d="m46.1273 24.0481a8.14 8.14 0 0 1 .1092 1.3315c0 5.019-4.5886 9.0876-10.2489 9.0876s-10.2489-4.0686-10.2489-9.0872a8.1373 8.1373 0 0 1 .1417-1.5145" fill="none" stroke="#843a91" stroke-linecap="round" stroke-linejoin="round" stroke-width="2"/></svg>