<svg xmlns="http://www.w3.org/2000/svg" version="1.1" height="40px" width="40px" fill="#fff" viewBox="-5.0 -10.0 110.0 135.0">
 <g>
  <path d="m21.402 84.723h-10.293c-2.2969 0-4.168-1.8672-4.168-4.168l0.003906-69.445c0-2.2969 1.8672-4.168 4.168-4.168h13.891v2.7773h-11.109c-2.2969 0-4.168 1.8672-4.168 4.168v63.891c0 2.2969 1.8672 4.168 4.168 4.168h6.9453c0.76953 0 1.3906-0.62109 1.3906-1.3906 0-0.76953-0.62109-1.3906-1.3906-1.3906h-6.9453c-0.76562 0-1.3906-0.62109-1.3906-1.3906l-0.003906-63.883c0-0.76562 0.62109-1.3906 1.3906-1.3906h11.367c0.57422 1.6133 2.1016 2.7773 3.9102 2.7773h11.109c1.8086 0 3.3359-1.1641 3.9102-2.7773h11.367c0.76562 0 1.3906 0.62109 1.3906 1.3906v54.168c0 0.76953 0.62109 1.3906 1.3906 1.3906 0.76953 0 1.3906-0.62109 1.3906-1.3906l-0.003906-54.168c0-2.2969-1.8672-4.168-4.168-4.168h-11.109v-2.7773h13.891c2.2969 0 4.168 1.8672 4.168 4.168v56.945c0 0.76953 0.62109 1.3906 1.3906 1.3906s1.3906-0.62109 1.3906-1.3906l-0.007812-56.949c0-3.8281-3.1172-6.9453-6.9453-6.9453l-47.223 0.003907c-3.8281 0-6.9453 3.1172-6.9453 6.9453v69.445c0 3.8281 3.1172 6.9453 6.9453 6.9453h10.293c0.76953 0 1.3906-0.62109 1.3906-1.3906s-0.62109-1.3906-1.3906-1.3906zm20.266-77.777v4.168c0 0.76562-0.62109 1.3906-1.3906 1.3906h-11.109c-0.76562 0-1.3906-0.62109-1.3906-1.3906v-4.168z"/>
  <path d="m28.832 20.875c-4.4492 1.1133-6.543 6.4141-7.4258 9.6758l-2.3672-2.3672c-0.54297-0.54297-1.4219-0.54297-1.9648 0-0.54297 0.54297-0.54297 1.4219 0 1.9648l4.168 4.168c0.26562 0.26562 0.61719 0.40625 0.98047 0.40625 0.14844 0 0.29297-0.023437 0.4375-0.070312 0.5-0.16406 0.85938-0.59766 0.9375-1.1172 0.35547-2.4492 2.1055-9.0117 5.9062-9.9609 0.74609-0.1875 1.1992-0.94141 1.0117-1.6836-0.1875-0.74609-0.94141-1.2031-1.6836-1.0117z"/>
  <path d="m29.504 43.012c0.74609-0.1875 1.1992-0.94141 1.0117-1.6836-0.1875-0.74609-0.94141-1.1992-1.6836-1.0117-4.4492 1.1133-6.543 6.4141-7.4258 9.6758l-2.3672-2.3672c-0.54297-0.54297-1.4219-0.54297-1.9648 0s-0.54297 1.4219 0 1.9648l4.168 4.168c0.26562 0.26563 0.61719 0.40625 0.98047 0.40625 0.14844 0 0.29297-0.023437 0.4375-0.070312 0.5-0.16406 0.85938-0.59766 0.9375-1.1172 0.35547-2.4492 2.1055-9.0117 5.9062-9.9609z"/>
  <path d="m51.391 26.391h-18.055c-0.76953 0-1.3906 0.62109-1.3906 1.3906s0.62109 1.3906 1.3906 1.3906h18.055c0.76953 0 1.3906-0.62109 1.3906-1.3906s-0.62109-1.3906-1.3906-1.3906z"/>
  <path d="m33.332 33.332h9.7227c0.76953 0 1.3906-0.62109 1.3906-1.3906 0-0.76953-0.62109-1.3906-1.3906-1.3906h-9.7227c-0.76953 0-1.3906 0.62109-1.3906 1.3906 0 0.76953 0.62109 1.3906 1.3906 1.3906z"/>
  <path d="m52.777 47.223c0-0.76953-0.62109-1.3906-1.3906-1.3906h-18.055c-0.76953 0-1.3906 0.62109-1.3906 1.3906 0 0.76953 0.62109 1.3906 1.3906 1.3906h18.055c0.76953 0 1.3906-0.62109 1.3906-1.3906z"/>
  <path d="m33.332 50c-0.76953 0-1.3906 0.62109-1.3906 1.3906s0.62109 1.3906 1.3906 1.3906h9.7227c0.76953 0 1.3906-0.62109 1.3906-1.3906s-0.62109-1.3906-1.3906-1.3906z"/>
  <path d="m91.668 65.277h-5.5547c-0.48828 0-0.95312 0.10156-1.3906 0.25781v-4.4219c0-2.2969-1.8672-4.168-4.168-4.168h-5.5547c-2.2969 0-4.168 1.8672-4.168 4.168v9.7227h-22.223v-9.7227c0-2.2969-1.8672-4.168-4.168-4.168h-5.5547c-2.2969 0-4.168 1.8672-4.168 4.168v4.4219c-0.4375-0.15625-0.89844-0.25781-1.3906-0.25781h-5.5547c-2.2969 0-4.168 1.8672-4.168 4.168v13.891c0 2.2969 1.8672 4.168 4.168 4.168h5.5547c0.48828 0 0.95312-0.10156 1.3906-0.25781v4.4219c0 2.2969 1.8672 4.168 4.168 4.168h5.5547c2.2969 0 4.168-1.8672 4.168-4.168v-9.7227h22.223v9.7227c0 2.2969 1.8672 4.168 4.168 4.168h5.5547c2.2969 0 4.168-1.8672 4.168-4.168v-4.4219c0.4375 0.15625 0.89844 0.25781 1.3906 0.25781h5.5547c2.2969 0 4.168-1.8672 4.168-4.168v-13.891c0-2.2969-1.8672-4.168-4.168-4.168zm-58.336 19.445h-5.5547c-0.76562 0-1.3906-0.62109-1.3906-1.3906v-13.891c0-0.76562 0.62109-1.3906 1.3906-1.3906h5.5547c0.76562 0 1.3906 0.62109 1.3906 1.3906v13.891c0 0.76562-0.62109 1.3906-1.3906 1.3906zm12.5 6.9453c0 0.76562-0.62109 1.3906-1.3906 1.3906h-5.5547c-0.76562 0-1.3906-0.62109-1.3906-1.3906v-30.555c0-0.76562 0.62109-1.3906 1.3906-1.3906h5.5547c0.76562 0 1.3906 0.62109 1.3906 1.3906zm2.7773-12.5v-5.5547h22.223v5.5547zm33.336 12.5c0 0.76562-0.62109 1.3906-1.3906 1.3906h-5.5547c-0.76562 0-1.3906-0.62109-1.3906-1.3906v-30.555c0-0.76562 0.62109-1.3906 1.3906-1.3906h5.5547c0.76562 0 1.3906 0.62109 1.3906 1.3906zm11.109-8.3359c0 0.76562-0.62109 1.3906-1.3906 1.3906h-5.5547c-0.76562 0-1.3906-0.62109-1.3906-1.3906v-13.891c0-0.76562 0.62109-1.3906 1.3906-1.3906h5.5547c0.76563 0 1.3906 0.62109 1.3906 1.3906z"/>
 </g></svg>