<svg xmlns="http://www.w3.org/2000/svg" enable-background="new 0 0 512 512" fill="#fff" height="33px" width="33px" viewBox="0 0 512 512"><path d="M256.09,8.057H146.199c-13.212,0-23.961,10.737-23.961,23.937V45.7H84.837c-29.364,0-53.252,23.856-53.252,53.179V406.41
			c0,29.325,23.888,53.181,53.252,53.181h232.182c14.968,26.43,43.449,44.352,76.104,44.352c48.133,0,87.292-38.878,87.292-86.664
			c0-46.46-37.045-84.389-83.335-86.465c2.231-3.8,5.077-7.864,8.883-12.242c2.722-3.131,2.392-7.88-0.739-10.6
			c-3.133-2.725-7.875-2.387-10.6,0.739c-5.105,5.872-8.952,11.438-11.815,16.656c-2.959-5.583-6.94-11.577-12.104-16.484V98.878
			c0-29.322-23.888-53.179-53.252-53.179h-37.401V31.994C280.052,18.794,269.303,8.057,256.09,8.057z M137.265,31.994
			c0-4.914,4.009-8.91,8.934-8.91H256.09c4.926,0,8.934,3.996,8.934,8.91v42.442c0,4.914-4.009,8.91-8.934,8.91H146.199
			c-4.926,0-8.934-3.996-8.934-8.91V31.994z M393.122,345.643c39.847,0,72.265,32.138,72.265,71.637s-32.419,71.637-72.265,71.637
			s-72.263-32.138-72.263-71.637c0-19.259,7.813-36.659,20.337-49.538c1.477,0.186,2.955,0.298,4.431,0.298
			c11.298-0.003,22.331-5.102,30.238-9.901c1.335,8.522,4.946,13.493,5.287,13.947c1.477,1.957,3.727,2.989,6.004,2.989
			c1.575,0,3.165-0.494,4.52-1.516c3.312-2.5,3.972-7.21,1.475-10.522c-0.073-0.095-4.196-6.262-2.05-17.285
			C391.78,345.731,392.439,345.643,393.122,345.643z M373.705,341.601c-7.878,5.782-22.352,13.946-33.407,10.678
			c-10.991-3.272-18.561-17.986-21.958-27.104c7.91-5.782,22.423-13.951,33.453-10.708
			C362.765,317.73,370.318,332.473,373.705,341.601z M317.453,60.727c21.078,0,38.225,17.116,38.225,38.152v201.101
			c-23.747-6.733-49.949,15.947-51.061,16.92c-1.751,1.537-2.612,3.777-2.49,6.047H189.944c-4.15,0-7.513,3.365-7.513,7.513
			s3.363,7.513,7.513,7.513h114.969c0.843,0,1.639-0.171,2.396-0.426c3.793,8.057,9.923,17.951,18.879,24.242
			c-12.684,15.043-20.355,34.384-20.355,55.492c0,9.539,1.62,18.695,4.501,27.285H84.837c-21.078,0-38.225-17.116-38.225-38.154
			V98.878c0-21.036,17.147-38.152,38.225-38.152h37.401v13.709c0,13.2,10.749,23.937,23.961,23.937H256.09
			c13.212,0,23.961-10.737,23.961-23.937V60.727H317.453z"/><path d="M142.995 162.691l-29.594 29.362-10.732-10.649c-2.945-2.92-7.702-2.906-10.627.042-2.923 2.947-2.903 7.704.042 10.627l16.025 15.9c1.465 1.453 3.378 2.179 5.293 2.179 1.913 0 3.828-.726 5.293-2.179l34.887-34.613c2.945-2.923 2.964-7.68.042-10.627C150.697 159.79 145.94 159.771 142.995 162.691zM182.431 171.102c0 4.15 3.363 7.513 7.513 7.513h114.969c4.15 0 7.513-3.363 7.513-7.513s-3.363-7.513-7.513-7.513H189.944C185.794 163.589 182.431 166.952 182.431 171.102zM189.944 212.311h78.236c4.15 0 7.513-3.363 7.513-7.513s-3.363-7.513-7.513-7.513h-78.236c-4.15 0-7.513 3.363-7.513 7.513S185.794 212.311 189.944 212.311zM142.995 242.37l-29.594 29.362-10.732-10.644c-2.95-2.925-7.702-2.906-10.627.039-2.923 2.945-2.903 7.704.042 10.624l16.025 15.898c1.465 1.453 3.38 2.182 5.293 2.182s3.828-.729 5.293-2.182l34.887-34.61c2.945-2.923 2.964-7.68.042-10.627C150.697 239.469 145.94 239.449 142.995 242.37zM304.913 243.267H189.944c-4.15 0-7.513 3.363-7.513 7.513s3.363 7.513 7.513 7.513h114.969c4.15 0 7.513-3.363 7.513-7.513S309.064 243.267 304.913 243.267zM268.18 276.965h-78.236c-4.15 0-7.513 3.365-7.513 7.513s3.363 7.513 7.513 7.513h78.236c4.15 0 7.513-3.365 7.513-7.513S272.33 276.965 268.18 276.965zM142.995 322.051l-29.594 29.359-10.732-10.644c-2.95-2.93-7.702-2.901-10.627.039-2.923 2.945-2.903 7.704.042 10.624l16.025 15.898c1.465 1.453 3.38 2.182 5.293 2.182s3.828-.729 5.293-2.182l34.887-34.613c2.945-2.92 2.964-7.68.042-10.624C150.697 319.14 145.94 319.116 142.995 322.051zM189.944 371.671h78.236c4.15 0 7.513-3.365 7.513-7.513s-3.363-7.513-7.513-7.513h-78.236c-4.15 0-7.513 3.365-7.513 7.513S185.794 371.671 189.944 371.671z"/></svg>