<svg id="svg" xmlns="http://www.w3.org/2000/svg" xmlns:xlink="http://www.w3.org/1999/xlink" width="500" height="353.6458333333333" viewBox="0, 0, 500,353.6458333333333"><g id="svgg"><path id="path0" d="M36.394 11.741 C 32.335 12.698,28.047 16.975,26.926 21.185 C 26.399 23.164,26.390 323.682,26.917 325.651 C 28.030 329.811,31.512 333.508,35.604 334.876 L 37.223 335.417 251.693 335.417 L 466.162 335.417 467.768 334.876 C 471.880 333.491,475.341 329.798,476.424 325.642 C 477.033 323.304,477.033 23.571,476.424 21.233 C 475.287 16.868,471.422 12.980,467.057 11.813 C 465.516 11.401,38.141 11.329,36.394 11.741 M254.928 26.195 C 256.599 27.601,255.610 30.327,253.428 30.327 C 251.942 30.327,251.039 29.448,251.050 28.015 C 251.067 25.770,253.222 24.759,254.928 26.195 M459.310 174.284 L 459.245 304.557 252.474 304.557 L 45.703 304.557 45.638 174.284 L 45.572 44.010 252.474 44.010 L 459.376 44.010 459.310 174.284 M264.901 315.116 C 269.287 316.334,270.201 325.869,266.177 328.422 L 264.981 329.180 251.677 329.108 L 238.373 329.036 237.467 328.416 C 235.621 327.150,235.297 326.313,235.200 322.555 C 235.079 317.871,235.839 316.155,238.447 315.225 C 239.709 314.775,263.324 314.678,264.901 315.116 M238.514 317.056 C 237.175 317.784,236.979 318.433,236.979 322.130 L 236.979 325.528 237.870 326.501 L 238.762 327.474 251.423 327.546 C 267.335 327.637,266.716 327.833,266.887 322.668 C 266.993 319.477,266.700 318.262,265.600 317.337 L 264.804 316.667 251.998 316.677 C 241.457 316.686,239.073 316.753,238.514 317.056 " stroke="none" fill="" fill-rule="evenodd"></path></g></svg>