<svg xmlns="http://www.w3.org/2000/svg" xmlns:xlink="http://www.w3.org/1999/xlink" fill="#fff" height="40px" width="40px" version="1.1" x="0px" y="0px" viewBox="0 0 100 125" enable-background="new 0 0 100 100" xml:space="preserve"><g><path d="M15.1,73.921c-0.221,0.221-0.382,0.494-0.49,0.8c-0.078,0.232-0.124,0.484-0.14,0.755l-2.334,12.336l12.335-2.337   c0.269-0.014,0.523-0.062,0.752-0.141c0.31-0.104,0.58-0.266,0.803-0.487c1.502-1.502,0.271-5.163-2.747-8.18   C20.264,73.649,16.6,72.421,15.1,73.921z"/><path d="M75.583,24.417c4.782,4.782,6.727,10.584,4.35,12.962l7.824-7.823c3.522-3.522,2.499-10.252-2.28-15.031   c-4.781-4.78-11.511-5.802-15.032-2.281l-7.822,7.823C64.999,17.689,70.801,19.637,75.583,24.417z"/><path d="M95,73.923L69.194,48.118l7.595-7.597c2.379-2.377,0.43-8.18-4.352-12.961c-0.359-0.358-0.723-0.698-1.091-1.027   L59.48,38.401l-3.241-3.238l11.329-11.333c-3.344-1.859-6.492-2.219-8.09-0.619l-7.595,7.595L26.078,5.001L5,26.079l25.806,25.805   L16.618,66.071c1.599-1.599,4.746-1.24,8.092,0.62l10.451-10.452l3.241,3.24l-9.914,9.917c0.368,0.325,0.731,0.666,1.091,1.025   c4.782,4.781,6.729,10.584,4.352,12.962l14.185-14.189l25.806,25.806L95,73.923z M26.078,9.615l6.017,6.021l-9.305,9.306   l2.307,2.308l9.307-9.307l6.019,6.02L29.114,35.27l2.309,2.307L42.732,26.27l6.019,6.02l-9.309,9.306l2.309,2.309l9.307-9.308   l6.019,6.02L45.77,51.925l2.307,2.307l11.306-11.308l6.021,6.02l-9.309,9.306l2.307,2.307l9.309-9.306l6.019,6.021L62.424,68.577   l2.307,2.307l11.306-11.305l6.021,6.018l-9.307,9.308l2.307,2.307l9.307-9.306l6.019,6.018L73.922,90.385L9.616,26.079   L26.078,9.615z"/></g></svg>