<svg xmlns="http://www.w3.org/2000/svg" version="1.1" height="30px" width="30px" fill="#fff" viewBox="-5.0 -80.0 90.0 110.0">
 <g>
  <path d="m58.332 4.168h-47.223c-3.832 0-6.9453 3.1094-6.9453 6.9453v69.445c0 3.832 3.1094 6.9453 6.9453 6.9453h11.109c-0.875-1.1523-1.3906-2.5977-1.3906-4.168v-1.3906h-6.9453c-2.293 0-4.168-1.875-4.168-4.168l0.007812-63.887c0-2.293 1.875-4.168 4.168-4.168h11.109v-2.7773h2.7773v4.168c0 0.76562 0.625 1.3906 1.3906 1.3906h11.109c0.76562 0 1.3906-0.625 1.3906-1.3906v-4.168h2.7773v2.7773h11.109c2.293 0 4.168 1.875 4.168 4.168v54.168h5.5547v-56.949c0-3.832-3.1094-6.9453-6.9453-6.9453z"/>
  <path d="m55.555 12.5h-11.359c-0.57031 1.6094-2.1094 2.7773-3.918 2.7773h-11.109c-1.8047 0-3.3477-1.168-3.918-2.7773h-11.359c-0.76562 0-1.3906 0.625-1.3906 1.3906v63.891c0 0.76562 0.625 1.3906 1.3906 1.3906h6.9453v-9.7227c0-3.832 3.1094-6.9453 6.9453-6.9453h4.168v-1.3906c0-3.832 3.1094-6.9453 6.9453-6.9453h5.5547c3.832 0 6.9453 3.1094 6.9453 6.9453v6.9453h5.5547l-0.003907-54.168c0-0.76562-0.625-1.3906-1.3906-1.3906zm-26.055 30.516c-3.793 0.94531-5.543 7.5156-5.9023 9.957-0.070312 0.52734-0.44531 0.95703-0.92969 1.125-0.15234 0.042969-0.29297 0.070313-0.44531 0.070313-0.35938 0-0.72266-0.14062-0.98438-0.40234l-4.168-4.168c-0.54297-0.54297-0.54297-1.4297 0-1.9727 0.54297-0.54297 1.4297-0.54297 1.9727 0l2.3594 2.375c0.89062-3.2656 2.9727-8.5703 7.4297-9.6797 0.73438-0.19531 1.5 0.26563 1.6797 1.0156 0.17969 0.73437-0.26562 1.5-1.0156 1.6797zm0-19.445c-3.793 0.94531-5.543 7.5156-5.9023 9.957-0.070312 0.52734-0.44531 0.95703-0.92969 1.125-0.15234 0.042968-0.29297 0.070312-0.44531 0.070312-0.35938 0-0.72266-0.14062-0.98438-0.40234l-4.168-4.168c-0.54297-0.54297-0.54297-1.4297 0-1.9727 0.54297-0.54297 1.4297-0.54297 1.9727 0l2.3594 2.375c0.89062-3.2656 2.9727-8.5703 7.4297-9.6797 0.73438-0.19531 1.5 0.26562 1.6797 1.0156 0.17969 0.73438-0.26562 1.5-1.0156 1.6797zm13.555 29.207h-9.7227c-0.76562 0-1.3906-0.625-1.3906-1.3906s0.625-1.3906 1.3906-1.3906h9.7227c0.76562 0 1.3906 0.625 1.3906 1.3906s-0.625 1.3906-1.3906 1.3906zm8.3359-4.168h-18.055c-0.76563 0-1.3906-0.625-1.3906-1.3906s0.625-1.3906 1.3906-1.3906h18.055c0.76562 0 1.3906 0.625 1.3906 1.3906s-0.625 1.3906-1.3906 1.3906zm-19.445-16.664c0-0.76562 0.625-1.3906 1.3906-1.3906h9.7227c0.76562 0 1.3906 0.625 1.3906 1.3906 0 0.76563-0.625 1.3906-1.3906 1.3906h-9.7227c-0.76563 0-1.3906-0.625-1.3906-1.3906zm19.445-2.7773h-18.055c-0.76563 0-1.3906-0.625-1.3906-1.3906s0.625-1.3906 1.3906-1.3906h18.055c0.76562 0 1.3906 0.625 1.3906 1.3906s-0.625 1.3906-1.3906 1.3906z"/>
  <path d="m91.668 65.277h-5.5547c-0.48828 0-0.95312 0.10156-1.3906 0.25781v-4.4219c0-2.2969-1.8672-4.168-4.168-4.168h-5.5547c-2.2969 0-4.168 1.8672-4.168 4.168v9.7227h-22.223v-9.7227c0-2.2969-1.8672-4.168-4.168-4.168h-5.5547c-2.2969 0-4.168 1.8672-4.168 4.168v4.4219c-0.4375-0.15625-0.89844-0.25781-1.3906-0.25781h-5.5547c-2.2969 0-4.168 1.8672-4.168 4.168v13.891c0 2.2969 1.8672 4.168 4.168 4.168h5.5547c0.48828 0 0.95312-0.10156 1.3906-0.25781v4.4219c0 2.2969 1.8672 4.168 4.168 4.168h5.5547c2.2969 0 4.168-1.8672 4.168-4.168v-9.7227h22.223v9.7227c0 2.2969 1.8672 4.168 4.168 4.168h5.5547c2.2969 0 4.168-1.8672 4.168-4.168v-4.4219c0.4375 0.15625 0.89844 0.25781 1.3906 0.25781h5.5547c2.2969 0 4.168-1.8672 4.168-4.168v-13.891c0-2.2969-1.8672-4.168-4.168-4.168zm-58.336 19.445h-5.5547c-0.76562 0-1.3906-0.62109-1.3906-1.3906v-13.891c0-0.76562 0.62109-1.3906 1.3906-1.3906h5.5547c0.76562 0 1.3906 0.62109 1.3906 1.3906v13.891c0 0.76562-0.62109 1.3906-1.3906 1.3906zm12.5 6.9453c0 0.76562-0.62109 1.3906-1.3906 1.3906h-5.5547c-0.76562 0-1.3906-0.62109-1.3906-1.3906v-30.555c0-0.76562 0.62109-1.3906 1.3906-1.3906h5.5547c0.76562 0 1.3906 0.62109 1.3906 1.3906zm2.7773-12.5v-5.5547h22.223v5.5547zm33.336 12.5c0 0.76562-0.62109 1.3906-1.3906 1.3906h-5.5547c-0.76562 0-1.3906-0.62109-1.3906-1.3906v-30.555c0-0.76562 0.62109-1.3906 1.3906-1.3906h5.5547c0.76562 0 1.3906 0.62109 1.3906 1.3906zm11.109-8.3359c0 0.76562-0.62109 1.3906-1.3906 1.3906h-5.5547c-0.76562 0-1.3906-0.62109-1.3906-1.3906v-13.891c0-0.76562 0.62109-1.3906 1.3906-1.3906h5.5547c0.76563 0 1.3906 0.62109 1.3906 1.3906z"/></g></svg>